<mxfile host="65bd71144e">
    <diagram id="rCvgz4LnLMHxYrOZHlcp" name="Page-1">
        <mxGraphModel dx="2416" dy="924" grid="1" gridSize="10" guides="1" tooltips="1" connect="1" arrows="1" fold="1" page="1" pageScale="1" pageWidth="850" pageHeight="1100" math="0" shadow="0">
            <root>
                <mxCell id="0"/>
                <mxCell id="1" parent="0"/>
                <mxCell id="2" value="&lt;p style=&quot;line-height: 200%; font-size: 40px;&quot;&gt;REDUX&lt;/p&gt;" style="rounded=1;whiteSpace=wrap;html=1;strokeWidth=1;dashed=1;" vertex="1" parent="1">
                    <mxGeometry x="330" y="40" width="180" height="80" as="geometry"/>
                </mxCell>
                <mxCell id="3" value="&lt;br&gt;&lt;div style=&quot;color: rgb(217, 215, 206); background-color: rgb(33, 39, 51); font-family: Consolas, &amp;quot;Courier New&amp;quot;, monospace; font-weight: normal; line-height: 19px; font-size: 30px;&quot;&gt;&lt;div style=&quot;&quot;&gt;&lt;span style=&quot;color: rgb(92, 103, 115);&quot;&gt;&lt;font style=&quot;font-size: 30px;&quot;&gt;// 1-create reducer to set data and change it&lt;/font&gt;&lt;/span&gt;&lt;/div&gt;&lt;div style=&quot;&quot;&gt;&lt;font style=&quot;font-size: 30px;&quot;&gt;&lt;span style=&quot;color: #ffae57;&quot;&gt;&lt;/span&gt;&lt;/font&gt;&lt;/div&gt;&lt;/div&gt;&lt;br style=&quot;font-size: 30px;&quot;&gt;" style="rounded=0;whiteSpace=wrap;html=1;fontSize=40;strokeWidth=1;dashed=1;" vertex="1" parent="1">
                    <mxGeometry x="40" y="140" width="770" height="130" as="geometry"/>
                </mxCell>
                <mxCell id="4" value="&lt;br&gt;&lt;div style=&quot;color: rgb(217, 215, 206); background-color: rgb(33, 39, 51); font-family: Consolas, &amp;quot;Courier New&amp;quot;, monospace; font-weight: normal; font-size: 14px; line-height: 19px;&quot;&gt;&lt;div&gt;&lt;span style=&quot;color: #ffae57;&quot;&gt;export&lt;/span&gt;&lt;span style=&quot;color: #d9d7ce;&quot;&gt; &lt;/span&gt;&lt;span style=&quot;color: #ffae57;&quot;&gt;const&lt;/span&gt;&lt;span style=&quot;color: #d9d7ce;&quot;&gt; &lt;/span&gt;&lt;span style=&quot;color: #ffd580;&quot;&gt;reducerAuth&lt;/span&gt;&lt;span style=&quot;color: #d9d7ce;&quot;&gt; &lt;/span&gt;&lt;span style=&quot;color: #ffae57;&quot;&gt;=&lt;/span&gt;&lt;span style=&quot;color: #d9d7ce;&quot;&gt; (&lt;/span&gt;&lt;span style=&quot;color: #d4bfff;&quot;&gt;state&lt;/span&gt;&lt;span style=&quot;color: #d9d7ce;&quot;&gt; &lt;/span&gt;&lt;span style=&quot;color: #ffae57;&quot;&gt;=&lt;/span&gt;&lt;span style=&quot;color: #d9d7ce;&quot;&gt; { isLog: &lt;/span&gt;&lt;span style=&quot;color: #d4bfff;&quot;&gt;false&lt;/span&gt;&lt;span style=&quot;color: #d9d7ce;&quot;&gt; }, { &lt;/span&gt;&lt;span style=&quot;color: #d4bfff;&quot;&gt;type&lt;/span&gt;&lt;span style=&quot;color: #d9d7ce;&quot;&gt; }) &lt;/span&gt;&lt;span style=&quot;color: #ffae57;&quot;&gt;=&amp;gt;&lt;/span&gt;&lt;span style=&quot;color: #d9d7ce;&quot;&gt; {&lt;/span&gt;&lt;/div&gt;&lt;div&gt;&lt;span style=&quot;color: #d9d7ce;&quot;&gt;&amp;nbsp; &lt;/span&gt;&lt;span style=&quot;color: #ffae57;&quot;&gt;switch&lt;/span&gt;&lt;span style=&quot;color: #d9d7ce;&quot;&gt; (type) {&lt;/span&gt;&lt;/div&gt;&lt;div&gt;&lt;span style=&quot;color: #d9d7ce;&quot;&gt;&amp;nbsp; &amp;nbsp; &lt;/span&gt;&lt;span style=&quot;color: #ffae57;&quot;&gt;case&lt;/span&gt;&lt;span style=&quot;color: #d9d7ce;&quot;&gt; &lt;/span&gt;&lt;span style=&quot;color: #bae67e;&quot;&gt;&quot;isLogin&quot;&lt;/span&gt;&lt;span style=&quot;color: #d9d7ce;&quot;&gt;:&lt;/span&gt;&lt;/div&gt;&lt;div&gt;&lt;span style=&quot;color: #d9d7ce;&quot;&gt;&amp;nbsp; &amp;nbsp; &amp;nbsp; &lt;/span&gt;&lt;span style=&quot;color: #ffae57;&quot;&gt;return&lt;/span&gt;&lt;span style=&quot;color: #d9d7ce;&quot;&gt; { isLog: &lt;/span&gt;&lt;span style=&quot;color: #d4bfff;&quot;&gt;true&lt;/span&gt;&lt;span style=&quot;color: #d9d7ce;&quot;&gt; };&lt;/span&gt;&lt;/div&gt;&lt;div&gt;&lt;span style=&quot;color: #d9d7ce;&quot;&gt;&amp;nbsp; &amp;nbsp; &lt;/span&gt;&lt;span style=&quot;color: #ffae57;&quot;&gt;case&lt;/span&gt;&lt;span style=&quot;color: #d9d7ce;&quot;&gt; &lt;/span&gt;&lt;span style=&quot;color: #bae67e;&quot;&gt;&quot;notLogin&quot;&lt;/span&gt;&lt;span style=&quot;color: #d9d7ce;&quot;&gt;:&lt;/span&gt;&lt;/div&gt;&lt;div&gt;&lt;span style=&quot;color: #d9d7ce;&quot;&gt;&amp;nbsp; &amp;nbsp; &amp;nbsp; &lt;/span&gt;&lt;span style=&quot;color: #ffae57;&quot;&gt;return&lt;/span&gt;&lt;span style=&quot;color: #d9d7ce;&quot;&gt; { isLog: &lt;/span&gt;&lt;span style=&quot;color: #d4bfff;&quot;&gt;false&lt;/span&gt;&lt;span style=&quot;color: #d9d7ce;&quot;&gt; };&lt;/span&gt;&lt;/div&gt;&lt;div&gt;&lt;span style=&quot;color: #d9d7ce;&quot;&gt;&amp;nbsp; &amp;nbsp; &lt;/span&gt;&lt;span style=&quot;color: #ffae57;&quot;&gt;default&lt;/span&gt;&lt;span style=&quot;color: #d9d7ce;&quot;&gt;:&lt;/span&gt;&lt;/div&gt;&lt;div&gt;&lt;span style=&quot;color: #d9d7ce;&quot;&gt;&amp;nbsp; &amp;nbsp; &amp;nbsp; &lt;/span&gt;&lt;span style=&quot;color: #ffae57;&quot;&gt;return&lt;/span&gt;&lt;span style=&quot;color: #d9d7ce;&quot;&gt; state;&lt;/span&gt;&lt;/div&gt;&lt;div&gt;&lt;span style=&quot;color: #d9d7ce;&quot;&gt;&amp;nbsp; }&lt;/span&gt;&lt;/div&gt;&lt;div&gt;&lt;span style=&quot;color: #d9d7ce;&quot;&gt;};&lt;/span&gt;&lt;/div&gt;&lt;/div&gt;&lt;br&gt;" style="rounded=0;whiteSpace=wrap;html=1;fontSize=30;align=left;strokeWidth=1;dashed=1;" vertex="1" parent="1">
                    <mxGeometry x="180" y="320" width="490" height="150" as="geometry"/>
                </mxCell>
                <mxCell id="5" value="&lt;font style=&quot;font-size: 25px;&quot;&gt;&lt;br&gt;&lt;/font&gt;&lt;div style=&quot;color: rgb(217, 215, 206); background-color: rgb(33, 39, 51); font-family: Consolas, &amp;quot;Courier New&amp;quot;, monospace; font-weight: normal; line-height: 120%; font-size: 25px;&quot;&gt;&lt;div style=&quot;line-height: 120%;&quot;&gt;&lt;span style=&quot;color: #5c6773;&quot;&gt;&lt;font style=&quot;font-size: 25px;&quot;&gt;// 2- create store&lt;/font&gt;&lt;/span&gt;&lt;/div&gt;&lt;div style=&quot;line-height: 120%;&quot;&gt;&lt;font style=&quot;font-size: 25px;&quot;&gt;&lt;span style=&quot;color: #ffae57;&quot;&gt;export&lt;/span&gt;&lt;span style=&quot;color: #d9d7ce;&quot;&gt; &lt;/span&gt;&lt;span style=&quot;color: #ffae57;&quot;&gt;const&lt;/span&gt;&lt;span style=&quot;color: #d9d7ce;&quot;&gt; store &lt;/span&gt;&lt;span style=&quot;color: #ffae57;&quot;&gt;=&lt;/span&gt;&lt;span style=&quot;color: #d9d7ce;&quot;&gt; &lt;/span&gt;&lt;span style=&quot;color: #ffd580;&quot;&gt;createStore&lt;/span&gt;&lt;span style=&quot;color: #d9d7ce;&quot;&gt;(rootReducer, &lt;/span&gt;&lt;span style=&quot;color: #ffd580;&quot;&gt;composeWithDevTools&lt;/span&gt;&lt;span style=&quot;color: #d9d7ce;&quot;&gt;());&lt;/span&gt;&lt;/font&gt;&lt;/div&gt;&lt;/div&gt;&lt;font style=&quot;font-size: 25px;&quot;&gt;&lt;br&gt;&lt;/font&gt;" style="rounded=0;whiteSpace=wrap;html=1;fontSize=30;align=left;strokeWidth=1;dashed=1;" vertex="1" parent="1">
                    <mxGeometry x="86.25" y="530" width="667.5" height="150" as="geometry"/>
                </mxCell>
                <mxCell id="7" style="edgeStyle=none;html=1;fontSize=25;strokeWidth=1;dashed=1;" edge="1" parent="1" source="6" target="5">
                    <mxGeometry relative="1" as="geometry"/>
                </mxCell>
                <mxCell id="6" value="dev tools" style="rounded=0;whiteSpace=wrap;html=1;fontSize=25;strokeWidth=1;dashed=1;" vertex="1" parent="1">
                    <mxGeometry x="-240" y="650" width="170" height="60" as="geometry"/>
                </mxCell>
                <mxCell id="9" style="edgeStyle=none;html=1;fontSize=25;entryX=1;entryY=0.5;entryDx=0;entryDy=0;strokeWidth=1;dashed=1;" edge="1" parent="1" source="8" target="5">
                    <mxGeometry relative="1" as="geometry"/>
                </mxCell>
                <mxCell id="8" value="store name" style="rounded=0;whiteSpace=wrap;html=1;fontSize=25;strokeWidth=1;dashed=1;" vertex="1" parent="1">
                    <mxGeometry x="850" y="540" width="220" height="60" as="geometry"/>
                </mxCell>
                <mxCell id="13" value="" style="edgeStyle=none;html=1;dashed=1;strokeWidth=1;fontSize=30;" edge="1" parent="1" source="10" target="12">
                    <mxGeometry relative="1" as="geometry"/>
                </mxCell>
                <mxCell id="10" value="&lt;br&gt;&lt;div style=&quot;color: rgb(217, 215, 206); background-color: rgb(33, 39, 51); font-family: Consolas, &amp;quot;Courier New&amp;quot;, monospace; font-weight: normal; line-height: 19px; font-size: 30px;&quot;&gt;&lt;div style=&quot;&quot;&gt;&lt;span style=&quot;color: rgb(92, 103, 115);&quot;&gt;&lt;font style=&quot;font-size: 30px;&quot;&gt;// 3- wrap all app with provider&lt;/font&gt;&lt;/span&gt;&lt;/div&gt;&lt;div style=&quot;&quot;&gt;&lt;font style=&quot;font-size: 30px;&quot;&gt;&lt;span style=&quot;color: #ffae57;&quot;&gt;&lt;/span&gt;&lt;/font&gt;&lt;/div&gt;&lt;/div&gt;&lt;br style=&quot;font-size: 30px;&quot;&gt;" style="rounded=0;whiteSpace=wrap;html=1;fontSize=25;strokeWidth=1;dashed=1;" vertex="1" parent="1">
                    <mxGeometry x="60" y="720" width="720" height="60" as="geometry"/>
                </mxCell>
                <mxCell id="12" value="&lt;div style=&quot;color: rgb(217, 215, 206); background-color: rgb(33, 39, 51); font-family: Consolas, &amp;quot;Courier New&amp;quot;, monospace; line-height: 120%;&quot;&gt;&lt;div style=&quot;line-height: 120%;&quot;&gt;&lt;div style=&quot;line-height: 120%;&quot;&gt;&lt;div style=&quot;line-height: 120%;&quot;&gt;&lt;span style=&quot;color: #ffae57;&quot;&gt;import&lt;/span&gt; {store}&lt;span style=&quot;color: #ffae57;&quot;&gt;from&lt;/span&gt;&lt;span style=&quot;color: #bae67e;&quot;&gt;&quot;./redux/store/store&quot;&lt;/span&gt;;&lt;/div&gt;&lt;div style=&quot;line-height: 120%;&quot;&gt;&lt;span style=&quot;color: #ffae57;&quot;&gt;import&lt;/span&gt; { Provider } &lt;span style=&quot;color: #ffae57;&quot;&gt;from&lt;/span&gt; &lt;span style=&quot;color: #bae67e;&quot;&gt;&quot;react-redux&quot;&lt;/span&gt;;&lt;/div&gt;&lt;br&gt;&lt;/div&gt;&lt;/div&gt;&lt;div style=&quot;line-height: 120%;&quot;&gt;&lt;span style=&quot;color: #5ccfe6;&quot;&gt;&amp;lt;&lt;/span&gt;&lt;span style=&quot;color: #5ccfe6;&quot;&gt;Provider&lt;/span&gt;&lt;span style=&quot;color: #80d4ff;&quot;&gt; &lt;/span&gt;&lt;span style=&quot;color: #ffae57;&quot;&gt;store=&lt;/span&gt;&lt;span style=&quot;color: #80d4ff;&quot;&gt;{&lt;/span&gt;store&lt;span style=&quot;color: #80d4ff;&quot;&gt;}&lt;/span&gt;&lt;span style=&quot;color: #5ccfe6;&quot;&gt;&amp;gt;&lt;/span&gt;&lt;/div&gt;&lt;div style=&quot;line-height: 120%;&quot;&gt;&lt;span style=&quot;color: #80d4ff;&quot;&gt;&amp;nbsp; &amp;nbsp; &amp;nbsp; &lt;/span&gt;&lt;span style=&quot;color: #5ccfe6;&quot;&gt;&amp;lt;&lt;/span&gt;&lt;span style=&quot;color: #5ccfe6;&quot;&gt;App&lt;/span&gt;&lt;span style=&quot;color: #80d4ff;&quot;&gt; &lt;/span&gt;&lt;span style=&quot;color: #5ccfe6;&quot;&gt;/&amp;gt;&lt;/span&gt;&lt;/div&gt;&lt;div style=&quot;line-height: 120%;&quot;&gt;&lt;span style=&quot;color: #5ccfe6;&quot;&gt;&amp;lt;/&lt;/span&gt;&lt;span style=&quot;color: #5ccfe6;&quot;&gt;Provider&lt;/span&gt;&lt;span style=&quot;color: #5ccfe6;&quot;&gt;&amp;gt;&lt;/span&gt;&lt;/div&gt;&lt;/div&gt;" style="whiteSpace=wrap;html=1;fontSize=25;rounded=0;strokeWidth=1;dashed=1;align=left;" vertex="1" parent="1">
                    <mxGeometry x="130" y="840" width="554" height="230" as="geometry"/>
                </mxCell>
                <mxCell id="14" value="&lt;font style=&quot;font-size: 30px;&quot;&gt;&lt;br&gt;&lt;/font&gt;&lt;div style=&quot;color: rgb(217, 215, 206); background-color: rgb(33, 39, 51); font-family: Consolas, &amp;quot;Courier New&amp;quot;, monospace; font-weight: normal; line-height: 120%; font-size: 30px;&quot;&gt;&lt;div style=&quot;line-height: 120%;&quot;&gt;&lt;font style=&quot;font-size: 30px;&quot;&gt;&lt;span style=&quot;color: #5c6773;&quot;&gt;// 4- access data from store reducer&lt;/span&gt;&lt;/font&gt;&lt;/div&gt;&lt;div style=&quot;line-height: 120%;&quot;&gt;&lt;font style=&quot;font-size: 30px;&quot;&gt;&lt;span style=&quot;color: #ffae57;&quot;&gt;const&lt;/span&gt;&lt;span style=&quot;color: #d9d7ce;&quot;&gt; isLog &lt;/span&gt;&lt;span style=&quot;color: #ffae57;&quot;&gt;=&lt;/span&gt;&lt;span style=&quot;color: #d9d7ce;&quot;&gt; &lt;/span&gt;&lt;span style=&quot;color: #ffd580;&quot;&gt;useSelector&lt;/span&gt;&lt;span style=&quot;color: #d9d7ce;&quot;&gt;((&lt;/span&gt;&lt;span style=&quot;color: #d4bfff;&quot;&gt;state&lt;/span&gt;&lt;span style=&quot;color: #d9d7ce;&quot;&gt;) &lt;/span&gt;&lt;span style=&quot;color: #ffae57;&quot;&gt;=&amp;gt;&lt;/span&gt;&lt;span style=&quot;color: #d9d7ce;&quot;&gt; state.reducerAuth.isLog);&lt;/span&gt;&lt;/font&gt;&lt;/div&gt;&lt;/div&gt;&lt;font style=&quot;font-size: 30px;&quot;&gt;&lt;br&gt;&lt;/font&gt;" style="rounded=0;whiteSpace=wrap;html=1;dashed=1;strokeWidth=1;fontSize=25;align=left;" vertex="1" parent="1">
                    <mxGeometry x="98.13" y="1100" width="643.75" height="230" as="geometry"/>
                </mxCell>
                <mxCell id="16" style="edgeStyle=none;html=1;dashed=1;strokeWidth=1;fontSize=25;" edge="1" parent="1" source="15" target="14">
                    <mxGeometry relative="1" as="geometry"/>
                </mxCell>
                <mxCell id="15" value="&lt;div style=&quot;color: rgb(217, 215, 206); background-color: rgb(33, 39, 51); font-family: Consolas, &amp;quot;Courier New&amp;quot;, monospace; font-size: 25px; line-height: 19px;&quot;&gt;&lt;div style=&quot;text-align: left; line-height: 126%;&quot;&gt;&lt;span style=&quot;color: #ffae57;&quot;&gt;import&lt;/span&gt; { useSelector} &lt;span style=&quot;color: #ffae57;&quot;&gt;from&lt;/span&gt; &lt;span style=&quot;color: #bae67e;&quot;&gt;&quot;react-redux&quot;&lt;/span&gt;;&lt;/div&gt;&lt;div&gt;&lt;span style=&quot;color: #ffae57;&quot;&gt;&lt;/span&gt;&lt;/div&gt;&lt;/div&gt;" style="rounded=0;whiteSpace=wrap;html=1;dashed=1;strokeWidth=1;fontSize=30;" vertex="1" parent="1">
                    <mxGeometry x="850" y="1110" width="620" height="90" as="geometry"/>
                </mxCell>
                <mxCell id="18" style="edgeStyle=none;html=1;dashed=1;strokeWidth=1;fontSize=25;entryX=0.299;entryY=1.009;entryDx=0;entryDy=0;entryPerimeter=0;" edge="1" parent="1" source="17" target="14">
                    <mxGeometry relative="1" as="geometry"/>
                </mxCell>
                <mxCell id="17" value="reducer name" style="rounded=0;whiteSpace=wrap;html=1;dashed=1;strokeWidth=1;fontSize=25;" vertex="1" parent="1">
                    <mxGeometry x="190" y="1380" width="230" height="60" as="geometry"/>
                </mxCell>
                <mxCell id="20" style="edgeStyle=none;html=1;dashed=1;strokeWidth=1;fontSize=25;entryX=0.605;entryY=1.001;entryDx=0;entryDy=0;entryPerimeter=0;" edge="1" parent="1" source="19" target="14">
                    <mxGeometry relative="1" as="geometry">
                        <mxPoint x="460" y="1340" as="targetPoint"/>
                    </mxGeometry>
                </mxCell>
                <mxCell id="19" value="state object key" style="rounded=0;whiteSpace=wrap;html=1;dashed=1;strokeWidth=1;fontSize=25;" vertex="1" parent="1">
                    <mxGeometry x="470" y="1380" width="230" height="60" as="geometry"/>
                </mxCell>
            </root>
        </mxGraphModel>
    </diagram>
</mxfile>